# xmcd
#
# Track frame offsets: 
#        150
#        20183
#        36231
#        48653
#        70447
#        92192
#        107679
#        134798
#        151729
#        170247
#        191708
#        212308
#
# Disc length: 3028 seconds
#
# Revision: 0
# Processed by: cddbd v1.5.2PL0 Copyright (c) Steve Scherf et al.
# Submitted via: ExactAudioCopy v1.0b1
#
DISCID=b50bd20c
DTITLE=Mary Chapin Carpenter - The Age Of Miracles
DYEAR=2010
DGENRE=Country
TTITLE0=We Traveled So Far
TTITLE1=Zephyr
TTITLE2=I Put My Ring Back On
TTITLE3=Holding Up The Sky
TTITLE4=4 June 1989
TTITLE5=I Was A Bird
TTITLE6=Mrs Hemingway
TTITLE7=I Have A Need For Solitude
TTITLE8=What You Look For
TTITLE9=Iceland
TTITLE10=The Age Of Miracles
TTITLE11=The Way I Feel
EXTD=
EXTT0=
EXTT1=
EXTT2=
EXTT3=
EXTT4=
EXTT5=
EXTT6=
EXTT7=
EXTT8=
EXTT9=
EXTT10=
EXTT11=
PLAYORDER=
